<svg id="Layer_1" enable-background="new 0 0 256 256" height="512" viewBox="0 0 256 256" width="512" xmlns="http://www.w3.org/2000/svg"><g><path d="m230.888 95.454c0-47.401-46.064-85.827-102.888-85.827s-102.888 38.426-102.888 85.827c0 15.726 5.094 30.451 13.945 43.125l-8.193 90.628c-.834 9.22 6.427 17.166 15.684 17.166h162.905c9.257 0 16.518-7.946 15.684-17.166l-8.193-90.628c8.85-12.674 13.944-27.4 13.944-43.125z" fill="#b35034"/><path d="m46.547 234.304c-2.161 0-3.859-1.854-3.664-4.011l8.59-95.013c-7.881-11.286-14.292-22.8-14.292-39.826 0-40.67 40.741-73.758 90.818-73.758s90.818 33.088 90.818 73.758c0 12.666-4.07 25.188-11.77 36.216l-2.521 3.611 8.59 95.014c.194 2.152-1.499 4.01-3.664 4.01h-162.905z" fill="#f9e5af"/><path d="m183.28 185.4c0 14.3-11.59 25.89-25.89 25.89-10.29 0-19.18-6-23.35-14.69-3.11 3.26-7.15 5.65-11 6.8-2.94.93-6.07 1.29-8.95 1.14-3.84 5.81-10.43 9.66-17.92 9.66-11.85 0-21.46-9.61-21.46-21.47 0-7.08 3.45-13.35 8.75-17.26-1.64-2.11-2.91-4.42-3.81-6.83-3.2-8.57-1.68-18.45 4.5-25.76-15.046-10.154-15.279-32.221-.42-42.64 2.39-1.69 5.07-2.98 7.95-3.78-8.12-20.38 6.87-42.74 28.98-42.74 17.96 0 32.39 15.19 31.1 33.41 16.24-3.6 31.52 8.76 31.52 25.27 0 8.98-4.57 16.89-11.52 21.53 2.31 2.77 3.95 5.9 4.92 9.19 2.16 7.29 1.04 15.34-3.38 21.86 6.07 4.74 9.98 12.12 9.98 20.42z" fill="#ffb69f"/><path d="m26.422 168.421c-4.009-1.325-8.149-2.482-10.473-12.495-2.141 9.222-5.571 10.875-10.473 12.495 7.996 2.642 9.202 7.017 10.473 12.495 2.191-9.443 5.815-10.956 10.473-12.495z" fill="#f0c020"/><path d="m182.233 61.106c-4.009-1.325-8.149-2.482-10.473-12.495-2.141 9.222-5.571 10.875-10.473 12.495 7.996 2.642 9.202 7.017 10.473 12.495 2.191-9.443 5.815-10.956 10.473-12.495z" fill="#f0c020"/><path d="m236.495 28.553c-4.009-1.325-8.149-2.482-10.473-12.495-2.141 9.222-5.571 10.875-10.473 12.495 7.996 2.642 9.202 7.017 10.473 12.495 2.191-9.443 5.815-10.956 10.473-12.495z" fill="#f0c020"/><g fill="#ea8f7d"><path d="m134.04 196.6c-3.11 3.26-7.15 5.65-11 6.8 1.46-15.72 8.49-18.98 8.49-18.98-.17 4.38.75 8.52 2.51 12.18z"/><path d="m176.68 143.12c-14.96 4.48-24.3-5.3-24.3-5.3 7.2 1.35 14-.29 19.38-3.89 2.31 2.77 3.95 5.9 4.92 9.19z"/><path d="m94.65 171.31c-4.17.32-8.01 1.81-11.19 4.16-1.64-2.11-2.91-4.42-3.81-6.83 10.06-1.16 15 2.67 15 2.67z"/><path d="m96.84 105.26s-8.01-.07-13.11-5.02c2.39-1.69 5.07-2.98 7.95-3.78 1.2 3 2.9 5.96 5.16 8.8z"/><path d="m148.986 198.774c-1.381 0-2.5-1.119-2.5-2.5v-1.614c0-1.381 1.119-2.5 2.5-2.5s2.5 1.119 2.5 2.5v1.614c0 1.381-1.119 2.5-2.5 2.5z"/><path d="m101.523 194.083c-1.381 0-2.5-1.119-2.5-2.5v-1.614c0-1.381 1.119-2.5 2.5-2.5s2.5 1.119 2.5 2.5v1.614c0 1.381-1.119 2.5-2.5 2.5z"/><path d="m144.974 116.174c-1.381 0-2.5-1.119-2.5-2.5v-1.614c0-1.381 1.119-2.5 2.5-2.5s2.5 1.119 2.5 2.5v1.614c0 1.381-1.12 2.5-2.5 2.5z"/><path d="m104.591 147.921c-1.381 0-2.5-1.119-2.5-2.5v-1.614c0-1.381 1.119-2.5 2.5-2.5s2.5 1.119 2.5 2.5v1.614c0 1.381-1.119 2.5-2.5 2.5z"/><path d="m127.677 86.064c-1.381 0-2.5-1.119-2.5-2.5v-1.614c0-1.381 1.119-2.5 2.5-2.5s2.5 1.119 2.5 2.5v1.614c0 1.381-1.119 2.5-2.5 2.5z"/><path d="m154.477 122.924c-1.381 0-2.5-1.119-2.5-2.5v-1.614c0-1.381 1.119-2.5 2.5-2.5s2.5 1.119 2.5 2.5v1.614c0 1.381-1.12 2.5-2.5 2.5z"/></g><path d="m18.384 155.361c-.595-2.566-4.273-2.573-4.87 0-1.954 8.417-4.835 9.369-8.822 10.686-2.284.755-2.279 3.995 0 4.748 6.87 2.271 7.646 5.618 8.821 10.686.596 2.567 4.273 2.573 4.871 0 1.953-8.416 4.834-9.368 8.822-10.686 2.284-.755 2.279-3.995 0-4.748-3.806-1.261-6.817-2.049-8.822-10.686zm-2.379 17.976c-.99-1.76-2.407-3.424-4.567-4.854 1.717-1.125 3.238-2.688 4.521-5.101 1.304 2.452 2.813 4.003 4.37 5.066-1.634 1.098-3.089 2.607-4.324 4.889z"/><path d="m169.324 74.165c.596 2.567 4.273 2.573 4.871 0 1.953-8.416 4.834-9.368 8.822-10.686 2.284-.755 2.279-3.995 0-4.748-3.806-1.262-6.817-2.05-8.822-10.687-.595-2.566-4.273-2.573-4.87 0-1.954 8.417-4.835 9.369-8.822 10.686-2.284.755-2.279 3.995 0 4.748 6.87 2.272 7.646 5.619 8.821 10.687zm2.446-18.099c1.304 2.452 2.813 4.003 4.37 5.066-1.634 1.099-3.088 2.608-4.323 4.89-.99-1.76-2.407-3.424-4.567-4.854 1.716-1.127 3.237-2.689 4.52-5.102z"/><path d="m223.587 15.493c-1.954 8.417-4.835 9.369-8.822 10.686-2.284.755-2.279 3.995 0 4.748 6.87 2.271 7.646 5.618 8.821 10.686.596 2.567 4.273 2.573 4.871 0 1.953-8.416 4.834-9.368 8.822-10.686 2.284-.755 2.279-3.995 0-4.748-3.806-1.262-6.817-2.05-8.822-10.687-.595-2.565-4.273-2.572-4.87.001zm6.815 13.086c-1.634 1.099-3.088 2.608-4.323 4.89-.99-1.76-2.407-3.424-4.567-4.854 1.717-1.125 3.238-2.688 4.521-5.101 1.303 2.451 2.812 4.002 4.369 5.065z"/><path d="m208.75 101.202v-2.516c0-1.381-1.119-2.5-2.5-2.5s-2.5 1.119-2.5 2.5v2.516c0 1.381 1.119 2.5 2.5 2.5s2.5-1.119 2.5-2.5z"/><path d="m198.5 117.947v-2.516c0-1.381-1.119-2.5-2.5-2.5s-2.5 1.119-2.5 2.5v2.516c0 1.381 1.119 2.5 2.5 2.5s2.5-1.119 2.5-2.5z"/><path d="m55.436 192.984v2.516c0 1.381 1.119 2.5 2.5 2.5s2.5-1.119 2.5-2.5v-2.516c0-1.381-1.119-2.5-2.5-2.5s-2.5 1.119-2.5 2.5z"/><path d="m193.461 219.953v-2.516c0-1.381-1.119-2.5-2.5-2.5s-2.5 1.119-2.5 2.5v2.516c0 1.381 1.119 2.5 2.5 2.5s2.5-1.12 2.5-2.5z"/><path d="m67.603 84.025c-1.381 0-2.5 1.119-2.5 2.5v2.516c0 1.381 1.119 2.5 2.5 2.5s2.5-1.119 2.5-2.5v-2.516c0-1.38-1.12-2.5-2.5-2.5z"/><path d="m226.99 119.02c-1.261-.48-2.75.2-3.23 1.45-.486 1.334.19 2.753 1.45 3.22 1.367.518 2.761-.223 3.229-1.45.481-1.24-.113-2.703-1.449-3.22z"/><path d="m36.479 139.25-8.109 89.73c-.993 10.558 7.396 19.89 18.18 19.89h162.9c10.22 0 19.035-8.557 18.18-19.88l-8.11-89.74c1.681-2.47 3.25-5.04 4.63-7.62.653-1.202.217-2.719-1.02-3.39-1.291-.681-2.761-.139-3.39 1.02-1.44 2.69-3.07 5.34-4.851 7.89-.33.48-.49 1.07-.439 1.65l8.199 90.63c.576 8.373-5.891 14.43-13.199 14.44h-162.9c-7.831-.01-13.913-6.78-13.2-14.44l8.2-90.63c.05-.58-.11-1.17-.44-1.65-8.829-12.65-13.5-27.06-13.5-41.7 0-46.561 45.673-83.32 100.381-83.32h.02c54.677 0 100.359 36.718 100.38 83.32 0 5.31-.609 10.62-1.81 15.78-.311 1.342.51 2.687 1.87 3 1.34.31 2.68-.54 3-1.85 0-.01 0-.01 0-.02 1.29-5.53 1.939-11.22 1.939-16.91 0-49.813-48.414-88.32-105.39-88.32-58.185 0-105.391 39.529-105.391 88.32 0 15.482 4.798 30.505 13.87 43.8z"/><path d="m77.28 37.16c1.225-.697 1.611-2.23.939-3.41-.66-1.15-2.25-1.6-3.41-.94-1.221.694-1.605 2.24-.939 3.41.68 1.181 2.18 1.637 3.41.94z"/><path d="m221.319 95.45c0-42.244-42.047-76.25-93.319-76.25-14.784 0-29.886 2.827-44.021 9.02-1.231.526-1.859 2.004-1.29 3.29.54 1.23 2.061 1.83 3.301 1.29 12.819-5.63 27.34-8.6 41.989-8.6h.04c48.093 0 88.279 31.522 88.3 71.25 0 12.15-3.92 24.18-11.319 34.79l-2.521 3.61c-.34.48-.5 1.07-.449 1.65l8.6 95.02c0 .825-.56 1.29-1.18 1.29h-162.91c-.597 0-1.17-.468-1.17-1.25l8.59-95.06c.06-.58-.101-1.17-.44-1.65-7.429-10.644-13.84-21.764-13.84-38.4 0-20.15 10.73-39.49 29.43-53.04 1.11-.8 1.36-2.37.551-3.49-.771-1.07-2.41-1.34-3.49-.56-19.033 13.798-31.491 34.079-31.491 57.09 0 16.087 5.618 28.208 14.22 40.51-.003.03-8.5 94.04-8.5 94.07-.41 3.365 2.312 6.77 6.15 6.77h162.9c3.371 0 6.387-2.709 6.159-6.73l-8.51-94.11 2-2.86c7.991-11.45 12.22-24.46 12.22-37.65z"/><path d="m80.625 143.369c-6.601 9.475-6.805 21.993-.55 31.649-4.963 4.518-7.865 10.975-7.865 17.712 0 13.217 10.748 23.97 23.96 23.97 7.594 0 14.668-3.573 19.193-9.627h.016c6.338 0 12.721-2.139 18.022-6.483 5.158 8.111 14.248 13.2 23.988 13.2 15.654 0 28.391-12.736 28.391-28.39 0-8.045-3.333-15.556-9.219-20.935 3.799-6.683 4.725-14.599 2.517-22.052-.844-2.859-2.117-5.532-3.798-7.975 6.619-5.365 10.5-13.424 10.5-22.039 0-16.963-14.753-30.048-31.445-28.225-.353-18.482-15.572-32.955-33.675-32.955-22.771 0-38.859 22.138-32.187 43.667-2.183.837-4.254 1.944-6.179 3.306-15.366 10.777-16.199 33.276-1.669 45.177zm4.549-41.088c1.604-1.134 3.329-2.048 5.143-2.739 1.216 2.537 2.74 4.978 4.567 7.274.859 1.081 2.433 1.259 3.513.4 1.08-.86 1.26-2.433.399-3.513-2.036-2.56-3.649-5.309-4.795-8.172 0-.001-.001-.001-.001-.002-7.355-18.471 6.023-39.309 26.66-39.309 16.23 0 29.814 13.684 28.605 30.733-.118 1.663 1.398 2.977 3.035 2.618 14.61-3.242 28.479 7.852 28.479 22.829 0 14.575-13.174 25.712-27.94 22.96-1.33-.25-2.67.67-2.92 2-.251 1.38.672 2.678 2 2.92h.01c1.811.34 3.64.51 5.45.51 4.845 0 9.546-1.226 13.743-3.553 1.396 2.02 2.462 4.225 3.16 6.594 1.998 6.741.886 13.938-3.052 19.747-.738 1.089-.506 2.563.53 3.373 5.732 4.476 9.02 11.201 9.02 18.45 0 12.897-10.493 23.39-23.391 23.39-12.581 0-23.38-10.186-23.38-23.34 0-.33.01-.67.021-.93.05-1.38-1.021-2.54-2.4-2.6-1.43-.06-2.54 1.02-2.6 2.4-.011.38-.021.76-.021 1.13 0 3.666.687 7.212 2.046 10.561-4.792 4.328-10.928 6.338-16.836 6.032-.9-.049-1.728.379-2.216 1.118-3.533 5.347-9.452 8.539-15.834 8.539-10.454 0-18.96-8.51-18.96-18.97 0-10.403 8.175-18.211 17.628-18.922 1.377-.104 2.409-1.304 2.306-2.681-.104-1.377-1.32-2.396-2.681-2.306-3.661.276-7.182 1.393-10.331 3.234-5.579-8.846-4.501-19.957 1.928-27.561.959-1.136.723-2.855-.511-3.687-13.626-9.196-13.764-29.138-.374-38.527z"/></g></svg>